# xmcd
#
# Track frame offsets: 
#        150
#        17162
#        35479
#        64216
#        98118
#        111475
#        142025
#        161338
#        187747
#        202164
#        239873
#        257041
#        279439
#        301905
#
# Disc length: 4470 seconds
#
# Revision: 2
# Processed by: cddbd v1.5.2PL0 Copyright (c) Steve Scherf et al.
# Submitted via: ExactAudioCopy v1.0b3
#
DISCID=cd11740e
DTITLE=Jimi Hendrix - Valleys Of Neptune {Target Exclusive Edition}
DYEAR=2010
DGENRE=Classic Rock
TTITLE0=Stone Free
TTITLE1=Valleys Of Neptune
TTITLE2=Bleeding Heart
TTITLE3=Hear My Train A Comin'
TTITLE4=Mr. Bad Luck
TTITLE5=Sunshine Of Your Love
TTITLE6=Lover Man
TTITLE7=Ships Passing Through The Night
TTITLE8=Fire
TTITLE9=Red House
TTITLE10=Lullaby For The Summer
TTITLE11=Crying Blue Rain
TTITLE12=Slow Version (Bonus Track)
TTITLE13=Trash Man (Bonus Track)
EXTD=*Target-only bonus tracks
EXTT0=
EXTT1=
EXTT2=
EXTT3=
EXTT4=
EXTT5=
EXTT6=
EXTT7=
EXTT8=
EXTT9=
EXTT10=
EXTT11=
EXTT12=
EXTT13=
PLAYORDER=
